Coordinates
version=1
nRows=6
nColumns=63
inDegrees=yes

Units are S.I. units (second, meters, Newtons, ...)
If the header above contains a line with 'inDegrees', this indicates whether rotational values are in degrees (yes) or radians (no).

endheader
time	pelvis_tilt	pelvis_list	pelvis_rotation	pelvis_tx	pelvis_ty	pelvis_tz	hip_flexion_r	hip_adduction_r	hip_rotation_r	knee_angle_r	knee_angle_r_beta	ankle_angle_r	subtalar_angle_r	mtp_angle_r	hip_flexion_l	hip_adduction_l	hip_rotation_l	knee_angle_l	knee_angle_l_beta	ankle_angle_l	subtalar_angle_l	mtp_angle_l	L5_S1_Flex_Ext	L5_S1_Lat_Bending	L5_S1_axial_rotation	L4_L5_Flex_Ext	L4_L5_Lat_Bending	L4_L5_axial_rotation	L3_L4_Flex_Ext	L3_L4_Lat_Bending	L3_L4_axial_rotation	L2_L3_Flex_Ext	L2_L3_Lat_Bending	L2_L3_axial_rotation	L1_L2_Flex_Ext	L1_L2_Lat_Bending	L1_L2_axial_rotation	L1_T12_Flex_Ext	L1_T12_Lat_Bending	L1_T12_axial_rotation	Abs_r3	Abs_r2	Abs_r1	Abs_t1	Abs_t2	neck_flexion	neck_bending	neck_rotation	arm_flex_r	arm_add_r	arm_rot_r	elbow_flex_r	pro_sup_r	wrist_flex_r	wrist_dev_r	arm_flex_l	arm_add_l	arm_rot_l	elbow_flex_l	pro_sup_l	wrist_flex_l	wrist_dev_l
      5.24200000	    -58.70390460	     -0.69008365	      4.96697558	     -0.26260590	      1.09418510	     -0.03875692	     87.88848508	    -10.80622474	     -9.81081772	     51.80972439	      0.90425028	      9.83460740	      6.63294586	      0.00000000	    128.93802317	     -6.82188006	     -4.86055375	    111.49322664	      1.94592390	     20.40962943	      3.83203284	      0.00000000	     -0.09323492	      0.03033933	     -0.77038586	     -0.17314658	      0.04035131	     -0.81853497	     -0.15317565	      0.07376705	     -0.81853497	     -0.10655819	      0.07376705	     -0.67408762	     -0.08657795	      0.06186797	     -0.62593851	     -0.05327443	      0.04699562	     -0.57778939	     -0.66596773	      0.34320459	     -4.28465502	      0.00000000	      0.00000000	     -0.00000000	      0.00000000	      0.00000000	     63.40699711	    -20.16632039	     21.96054652	     48.58963403	     50.02246144	      0.00000000	      5.00006369	     62.83656123	    -18.10321518	     17.73063637	     51.39279198	     52.20192988	      0.00000000	      5.00006369
      5.25000000	    -58.74597461	     -0.68055084	      4.72814658	     -0.26281934	      1.09476849	     -0.03855663	     87.68312692	    -10.60486046	     -9.77031139	     52.36264943	      0.91390064	     10.01490403	      6.59581049	      0.00000000	    129.10293985	     -7.02281016	     -4.91487258	    110.56779073	      1.92977199	     20.39113879	      3.86301332	      0.00000000	     -0.09575933	      0.03050555	     -0.73880322	     -0.17783465	      0.04057238	     -0.78497843	     -0.15732300	      0.07417120	     -0.78497843	     -0.10944334	      0.07417120	     -0.64645282	     -0.08892211	      0.06220692	     -0.60027762	     -0.05471688	      0.04725310	     -0.55410242	     -0.68399931	      0.34508491	     -4.10900189	      0.00000000	      0.00000000	     -0.00000000	      0.00000000	      0.00000000	     63.40940938	    -20.09650641	     21.92207698	     48.61035074	     50.01749986	      0.00000000	      5.00006357	     62.83012528	    -18.16065669	     17.71037341	     51.40186390	     52.20102544	      0.00000000	      5.00006357
      5.25800000	    -58.79585813	     -0.20664635	      4.70003505	     -0.26318667	      1.09482063	     -0.03833245	     87.99417391	    -10.59032934	     -8.79761925	     53.80931300	      0.93914968	     10.51759819	      6.19741847	      0.00000000	    129.05706283	     -7.28000892	     -5.47988995	    109.60478440	      1.91296436	     20.39555107	      3.49633137	      0.00000000	     -0.09489896	     -0.03318946	     -0.73536567	     -0.17623685	     -0.04414198	     -0.78132603	     -0.15590949	     -0.08069685	     -0.78132603	     -0.10846002	     -0.08069685	     -0.64344496	     -0.08812317	     -0.06767995	     -0.59748461	     -0.05422526	     -0.05141047	     -0.55152425	     -0.67785375	     -0.37544582	     -4.08988326	      0.00000000	      0.00000000	     -0.00000000	      0.00000000	      0.00000000	     63.16987606	    -19.81607464	     21.11593009	     48.67531297	     49.92198621	      0.00000000	      5.00006103	     62.99637097	    -18.30240184	     17.93608355	     51.41023562	     52.24078999	      0.00000000	      5.00006103
      5.26700000	    -58.81069659	     -0.22708962	      4.38667142	     -0.26351672	      1.09494189	     -0.03815967	     88.06678090	    -10.30946927	     -8.55627261	     54.98782693	      0.95971863	     10.86474762	      6.01343665	      0.00000000	    129.08061786	     -7.41460545	     -5.35810023	    108.60221286	      1.89546619	     20.22237723	      3.35603819	      0.00000000	     -0.09497110	     -0.02538740	     -0.68103376	     -0.17637082	     -0.03376525	     -0.72359837	     -0.15602801	     -0.06172693	     -0.72359837	     -0.10854246	     -0.06172693	     -0.59590454	     -0.08819016	     -0.05176999	     -0.55333993	     -0.05426648	     -0.03932509	     -0.51077532	     -0.67836904	     -0.28718738	     -3.78770544	      0.00000000	      0.00000000	     -0.00000000	      0.00000000	      0.00000000	     63.21253156	    -19.81018649	     21.06732348	     48.68768568	     49.91542015	      0.00000000	      5.00006057	     62.98509813	    -18.28228818	     17.94081366	     51.38961174	     52.24398864	      0.00000000	      5.00006057
      5.27500000	    -58.82734685	     -0.18807128	      4.07848105	     -0.26396017	      1.09504112	     -0.03789590	     88.23627848	    -10.02273028	     -8.19089385	     56.30497779	      0.98270725	     11.21985604	      5.73944933	      0.00000000	    128.99031708	     -7.56634687	     -5.30669294	    107.49145826	      1.87607986	     19.93115584	      3.04075446	      0.00000000	     -0.09605375	     -0.02594760	     -0.63059056	     -0.17838142	     -0.03451031	     -0.67000247	     -0.15780670	     -0.06308900	     -0.67000247	     -0.10977983	     -0.06308900	     -0.55176674	     -0.08919551	     -0.05291235	     -0.51235483	     -0.05488511	     -0.04019284	     -0.47294292	     -0.68610232	     -0.29352448	     -3.50715551	      0.00000000	      0.00000000	     -0.00000000	      0.00000000	      0.00000000	     63.26599583	    -19.78044139	     21.04797375	     48.70058108	     49.91162785	      0.00000000	      5.00006001	     63.03033182	    -18.27968025	     17.94956095	     51.33025699	     52.24859654	      0.00000000	      5.00006001
      5.28300000	    -58.86775670	      0.06810345	      3.82275763	     -0.26458141	      1.09516000	     -0.03741432	     88.56773418	     -9.77174017	     -7.56767054	     57.75215702	      1.00796529	     11.43527453	      5.16030970	      0.00000000	    128.74561749	     -7.80129609	     -5.63378297	    106.21499902	      1.85380145	     19.20402319	      1.75781785	      0.00000000	     -0.09598239	     -0.05823386	     -0.59083624	     -0.17824890	     -0.07745103	     -0.62776350	     -0.15768947	     -0.14158980	     -0.62776350	     -0.10969828	     -0.14158980	     -0.51698171	     -0.08912925	     -0.11875048	     -0.48005444	     -0.05484434	     -0.09020424	     -0.44312718	     -0.68559263	     -0.65875302	     -3.28605389	      0.00000000	      0.00000000	     -0.00000000	      0.00000000	      0.00000000	     63.29247590	    -19.67717553	     20.96539174	     48.68741324	     49.89613367	      0.00000000	      5.00005776	     63.24439145	    -18.40828101	     18.29317151	     51.21474065	     52.29907327	      0.00000000	      5.00005776
